<svg width="32" height="32" viewBox="0 0 32 32" fill="none" xmlns="http://www.w3.org/2000/svg">
<path d="M23.4622 6.86471C23.4622 7.19613 23.364 7.52011 23.18 7.79567C22.9959 8.07124 22.7343 8.28601 22.4282 8.41284C22.1221 8.53967 21.7852 8.57285 21.4602 8.5082C21.1352 8.44354 20.8367 8.28395 20.6024 8.0496C20.368 7.81525 20.2084 7.51667 20.1438 7.19162C20.0791 6.86657 20.1122 6.52964 20.239 6.22345C20.3657 5.91726 20.5804 5.65555 20.8559 5.47143C21.1314 5.2873 21.4553 5.18902 21.7867 5.18902C22.231 5.18902 22.6571 5.36557 22.9714 5.67982C23.2856 5.99407 23.4621 6.42029 23.4622 6.86471ZM28.7269 18.5247C25.8793 22.1414 21.3003 24.1243 15.1155 24.4036L12.2124 31.3158C12.1255 31.518 11.9814 31.6905 11.7979 31.812C11.6144 31.9335 11.3995 31.9989 11.1794 32H11.1096C10.8782 31.9877 10.6565 31.9029 10.4761 31.7575C10.2956 31.6121 10.1655 31.4136 10.1043 31.1901L8.03716 23.9707L0.819012 21.904C0.595095 21.8414 0.396266 21.7106 0.250247 21.5296C0.104228 21.3486 0.0182988 21.1266 0.00443957 20.8945C-0.00941964 20.6624 0.0494823 20.4317 0.172933 20.2347C0.296383 20.0377 0.478228 19.8841 0.693114 19.7954L7.60353 16.8909C7.88203 10.7048 9.85001 6.12462 13.4796 3.27595C19.2171 -1.2484 27.3566 0.0642184 29.716 0.580888C30.1338 0.670777 30.5167 0.879334 30.8189 1.18153C31.121 1.48372 31.3296 1.8667 31.4195 2.2845C31.9363 4.64443 33.2496 12.7855 28.7269 18.5247ZM29.2416 2.75928C27.1195 2.31243 19.8316 1.11152 14.8619 5.03542C14.335 5.44373 13.8488 5.90202 13.4101 6.4039C13.4395 7.86714 14.0404 9.2608 15.0843 10.2865C16.1282 11.3122 17.532 11.8884 18.9952 11.8918C19.2914 11.8918 19.5755 12.0095 19.785 12.219C19.9945 12.4285 20.1122 12.7126 20.1122 13.0089C20.1158 14.4724 20.692 15.8765 21.7176 16.9204C22.7432 17.9644 24.1367 18.5653 25.5996 18.5945C26.098 18.1522 26.5559 17.6662 26.9677 17.1423C30.8901 12.1711 29.6886 4.88181 29.2416 2.75928Z" fill="#00ABFE"/>
</svg>
